<svg xmlns="http://www.w3.org/2000/svg" width="1060" height="900" viewBox="0 0 1060 900" font-family="-apple-system, BlinkMacSystemFont, Segoe UI, Roboto, sans-serif">
  <defs>
    <marker id="arr" viewBox="0 0 10 10" refX="9" refY="5" markerWidth="7" markerHeight="7" orient="auto-start-reverse">
      <path d="M0,0 L10,5 L0,10 z" fill="#64748b"/>
    </marker>
  </defs>
  <rect x="0" y="0" width="1060" height="900" fill="#f7f7f8"/>
  <text x="530" y="40" text-anchor="middle" font-size="30" font-weight="700" fill="#111111">Autonomous OS</text>

  <!-- Skills -->
  <rect x="74" y="60" width="912" height="96" rx="16" fill="#14b8a6"/>
  <text x="94" y="90" text-anchor="start" font-size="19" font-weight="600" fill="#ffffff">Skills</text>
  <text x="966" y="90" text-anchor="end" font-size="11" fill="#ffffff" fill-opacity="0.85">skills/ · 24 × SKILL.md</text>
  <g fill="#ffffff" fill-opacity="0.2">
    <rect x="94" y="104" width="136" height="38" rx="10"/><rect x="241" y="104" width="136" height="38" rx="10"/><rect x="388" y="104" width="136" height="38" rx="10"/><rect x="535" y="104" width="136" height="38" rx="10"/><rect x="682" y="104" width="136" height="38" rx="10"/>
  </g>
  <rect x="829" y="104" width="137" height="38" rx="10" fill="#ffffff" fill-opacity="0.12"/>
  <g fill="#ffffff" font-size="13" text-anchor="middle">
    <text x="162" y="128">guard</text><text x="309" y="128">mood</text><text x="456" y="128">scene</text><text x="603" y="128">habit</text><text x="750" y="128">wellbeing</text>
  </g>
  <text x="897" y="128" text-anchor="middle" font-size="13" fill="#ffffff" fill-opacity="0.8">+19 more</text>

  <!-- Tools -->
  <rect x="74" y="168" width="292" height="148" rx="16" fill="#84cc16"/>
  <text x="94" y="198" text-anchor="start" font-size="19" font-weight="600" fill="#ffffff">Tools</text>
  <g fill="#ffffff" fill-opacity="0.2"><rect x="94" y="212" width="252" height="40" rx="10"/><rect x="94" y="260" width="252" height="40" rx="10"/></g>
  <g fill="#ffffff" font-size="13" text-anchor="middle"><text x="220" y="237">MCP</text><text x="220" y="285">CLI</text></g>

  <!-- System Managers -->
  <rect x="382" y="168" width="604" height="148" rx="16" fill="#eab308"/>
  <text x="402" y="198" text-anchor="start" font-size="19" font-weight="600" fill="#ffffff">System Managers</text>
  <text x="966" y="198" text-anchor="end" font-size="11" fill="#ffffff" fill-opacity="0.85">system/ · Go</text>
  <g fill="#ffffff" fill-opacity="0.2">
    <rect x="402" y="212" width="132" height="38" rx="10"/><rect x="546" y="212" width="132" height="38" rx="10"/><rect x="690" y="212" width="132" height="38" rx="10"/><rect x="834" y="212" width="132" height="38" rx="10"/>
    <rect x="402" y="258" width="132" height="38" rx="10"/><rect x="546" y="258" width="132" height="38" rx="10"/><rect x="690" y="258" width="132" height="38" rx="10"/><rect x="834" y="258" width="132" height="38" rx="10"/>
  </g>
  <g fill="#ffffff" font-size="13" text-anchor="middle">
    <text x="468" y="236">intent</text><text x="612" y="236">network</text><text x="756" y="236">sensing</text><text x="900" y="236">monitor</text>
    <text x="468" y="282">healthwatch</text><text x="612" y="282">ambient</text><text x="756" y="282">device</text><text x="900" y="282">OTA · bootstrap/</text>
  </g>

  <!-- Agentic Runtime -->
  <rect x="74" y="328" width="912" height="148" rx="16" fill="#4f46e5"/>
  <text x="94" y="358" text-anchor="start" font-size="19" font-weight="600" fill="#ffffff">Agentic Runtime</text>
  <text x="966" y="358" text-anchor="end" font-size="11" fill="#ffffff" fill-opacity="0.85">agent-runtimes/ · factory: system/agent</text>
  <g fill="#ffffff" fill-opacity="0.2">
    <rect x="94" y="372" width="280" height="38" rx="10"/><rect x="390" y="372" width="280" height="38" rx="10"/><rect x="686" y="372" width="280" height="38" rx="10"/>
    <rect x="94" y="418" width="280" height="38" rx="10"/><rect x="390" y="418" width="280" height="38" rx="10"/>
  </g>
  <rect x="686" y="418" width="280" height="38" rx="10" fill="#ffffff" fill-opacity="0.12"/>
  <g fill="#ffffff" font-size="13" text-anchor="middle">
    <text x="234" y="396">OpenClaw</text><text x="530" y="396">Hermes</text><text x="826" y="396">PicoClaw</text>
    <text x="234" y="442">Codex</text><text x="530" y="442">Claude Code</text>
  </g>
  <text x="826" y="442" text-anchor="middle" font-size="13" fill="#ffffff" fill-opacity="0.8">custom runtime</text>

  <!-- HAL -->
  <rect x="74" y="488" width="912" height="210" rx="16" fill="#06b6d4"/>
  <text x="94" y="518" text-anchor="start" font-size="19" font-weight="600" fill="#ffffff">Hardware Abstraction Layer (HAL)</text>
  <text x="966" y="518" text-anchor="end" font-size="11" fill="#ffffff" fill-opacity="0.85">contract/ (ABI) · hal (host)</text>
  <g fill="#ffffff" fill-opacity="0.2">
    <rect x="94" y="532" width="136" height="34" rx="10"/><rect x="241" y="532" width="136" height="34" rx="10"/><rect x="388" y="532" width="136" height="34" rx="10"/><rect x="535" y="532" width="136" height="34" rx="10"/><rect x="682" y="532" width="136" height="34" rx="10"/><rect x="829" y="532" width="137" height="34" rx="10"/>
    <rect x="94" y="574" width="136" height="34" rx="10"/><rect x="241" y="574" width="136" height="34" rx="10"/><rect x="388" y="574" width="136" height="34" rx="10"/><rect x="535" y="574" width="136" height="34" rx="10"/><rect x="682" y="574" width="136" height="34" rx="10"/><rect x="829" y="574" width="137" height="34" rx="10"/>
  </g>
  <g fill="#ffffff" font-size="13" text-anchor="middle">
    <text x="162" y="554">audio</text><text x="309" y="554">vision</text><text x="456" y="554">sensing</text><text x="603" y="554">presence</text><text x="750" y="554">motion</text><text x="897" y="554">light</text>
    <text x="162" y="596">display</text><text x="309" y="596">expression</text><text x="456" y="596">media</text><text x="603" y="596">connectivity</text><text x="750" y="596">companion</text><text x="897" y="596">system</text>
  </g>
  <!-- Brain-layer code that lives inside the HAL (known divergence) + the deterministic safety gate -->
  <rect x="94" y="640" width="424" height="40" rx="10" fill="#4f46e5"/>
  <text x="306" y="658" text-anchor="middle" font-size="12.5" font-weight="600" fill="#ffffff">realtime voice agent — drivers/realtime</text>
  <text x="306" y="673" text-anchor="middle" font-size="10" fill="#ffffff" fill-opacity="0.85">runtime-layer code hosted in the HAL</text>
  <rect x="534" y="640" width="432" height="40" rx="10" fill="#7f1d1d" fill-opacity="0.9"/>
  <text x="750" y="658" text-anchor="middle" font-size="12.5" font-weight="600" fill="#ffffff">safety gate — hal/safety</text>
  <text x="750" y="673" text-anchor="middle" font-size="10" fill="#ffffff" fill-opacity="0.85">SAFETY.md bounds, enforced deterministically — never by the LLM</text>

  <!-- Linux Kernel -->
  <rect x="74" y="710" width="912" height="168" rx="16" fill="#ea580c"/>
  <text x="94" y="740" text-anchor="start" font-size="19" font-weight="600" fill="#ffffff">Linux Kernel</text>
  <text x="966" y="740" text-anchor="end" font-size="11" fill="#ffffff" fill-opacity="0.85">vendor kernel — not shipped</text>
  <rect x="94" y="752" width="872" height="68" rx="12" fill="#ffffff" fill-opacity="0.12"/>
  <text x="530" y="770" text-anchor="middle" font-size="12.5" font-weight="500" fill="#ffffff">Drivers — hal/drivers · per-board wiring: hal/board</text>
  <g fill="#ffffff" fill-opacity="0.2">
    <rect x="114" y="780" width="100" height="30" rx="8"/><rect x="226" y="780" width="70" height="30" rx="8"/><rect x="308" y="780" width="95" height="30" rx="8"/><rect x="415" y="780" width="95" height="30" rx="8"/><rect x="522" y="780" width="170" height="30" rx="8"/><rect x="704" y="780" width="120" height="30" rx="8"/><rect x="836" y="780" width="105" height="30" rx="8"/>
  </g>
  <g fill="#ffffff" font-size="12" text-anchor="middle">
    <text x="164" y="800">motors</text><text x="261" y="800">rgb</text><text x="355" y="800">display</text><text x="462" y="800">camera</text><text x="607" y="800">voice — STT · TTS · VAD</text><text x="764" y="800">gpio · touch</text><text x="888" y="800">bluetooth</text>
  </g>
  <rect x="94" y="830" width="872" height="32" rx="10" fill="#ffffff" fill-opacity="0.12"/>
  <text x="530" y="851" text-anchor="middle" font-size="14" font-weight="500" fill="#ffffff">Power Management</text>

  <!-- The two directions of the runtime loop -->
  <line x1="44" y1="380" x2="44" y2="690" stroke="#64748b" stroke-width="2" marker-end="url(#arr)"/>
  <text x="30" y="535" text-anchor="middle" font-size="11" fill="#475569" transform="rotate(-90 30 535)">act — capability calls (HAL :5001)</text>
  <line x1="1016" y1="690" x2="1016" y2="380" stroke="#64748b" stroke-width="2" marker-end="url(#arr)"/>
  <text x="1032" y="535" text-anchor="middle" font-size="11" fill="#475569" transform="rotate(90 1032 535)">sense — events → intent → agent turn</text>
</svg>
