<svg xmlns="http://www.w3.org/2000/svg" viewBox="0 0 2089 1331" font-family="Avenir Next, Nunito, Segoe UI, Helvetica, Arial, sans-serif">
  <defs>
    <marker id="ha" markerWidth="14" markerHeight="14" refX="11" refY="5" orient="auto" markerUnits="userSpaceOnUse">
      <path d="M1.5 1 L10 5 L1.5 9" fill="none" stroke="#a1a099" stroke-width="1.9" stroke-linecap="round" stroke-linejoin="round"/>
    </marker>
    <marker id="Ha" markerWidth="19" markerHeight="19" refX="13" refY="6.5" orient="auto" markerUnits="userSpaceOnUse">
      <path d="M2 1.5 L12.5 6.5 L2 11.5" fill="none" stroke="#a1a099" stroke-width="3" stroke-linecap="round" stroke-linejoin="round"/>
    </marker>
    <marker id="hg" markerWidth="14" markerHeight="14" refX="11" refY="5" orient="auto" markerUnits="userSpaceOnUse">
      <path d="M1.5 1 L10 5 L1.5 9" fill="none" stroke="#5a912f" stroke-width="1.9" stroke-linecap="round" stroke-linejoin="round"/>
    </marker>
    <marker id="Hg" markerWidth="19" markerHeight="19" refX="13" refY="6.5" orient="auto" markerUnits="userSpaceOnUse">
      <path d="M2 1.5 L12.5 6.5 L2 11.5" fill="none" stroke="#5a912f" stroke-width="3" stroke-linecap="round" stroke-linejoin="round"/>
    </marker>
    <marker id="hp" markerWidth="14" markerHeight="14" refX="11" refY="5" orient="auto" markerUnits="userSpaceOnUse">
      <path d="M1.5 1 L10 5 L1.5 9" fill="none" stroke="#5d579d" stroke-width="1.9" stroke-linecap="round" stroke-linejoin="round"/>
    </marker>
    <marker id="Hp" markerWidth="19" markerHeight="19" refX="13" refY="6.5" orient="auto" markerUnits="userSpaceOnUse">
      <path d="M2 1.5 L12.5 6.5 L2 11.5" fill="none" stroke="#5d579d" stroke-width="3" stroke-linecap="round" stroke-linejoin="round"/>
    </marker>
    <marker id="hc" markerWidth="14" markerHeight="14" refX="11" refY="5" orient="auto" markerUnits="userSpaceOnUse">
      <path d="M1.5 1 L10 5 L1.5 9" fill="none" stroke="#ad5130" stroke-width="1.9" stroke-linecap="round" stroke-linejoin="round"/>
    </marker>
    <marker id="Hc" markerWidth="19" markerHeight="19" refX="13" refY="6.5" orient="auto" markerUnits="userSpaceOnUse">
      <path d="M2 1.5 L12.5 6.5 L2 11.5" fill="none" stroke="#ad5130" stroke-width="3" stroke-linecap="round" stroke-linejoin="round"/>
    </marker>
    <marker id="hk" markerWidth="14" markerHeight="14" refX="11" refY="5" orient="auto" markerUnits="userSpaceOnUse">
      <path d="M1.5 1 L10 5 L1.5 9" fill="none" stroke="#2b2b29" stroke-width="1.9" stroke-linecap="round" stroke-linejoin="round"/>
    </marker>
    <marker id="Hk" markerWidth="19" markerHeight="19" refX="13" refY="6.5" orient="auto" markerUnits="userSpaceOnUse">
      <path d="M2 1.5 L12.5 6.5 L2 11.5" fill="none" stroke="#2b2b29" stroke-width="3" stroke-linecap="round" stroke-linejoin="round"/>
    </marker>
  </defs>
  <rect width="2089" height="1331" fill="#fff"/>
  <text x="96" y="92" fill="#2b2b29" font-size="28" font-weight="600">Skills</text>
  <text x="96" y="124" font-size="26" font-family="SF Mono, Menlo, Consolas, monospace"><tspan fill="#2b2b29">skills/</tspan><tspan fill="#5d579d"> · SKILL.md</tspan></text>
  <rect x="620" y="57" width="122" height="66" fill="#eff5ea" stroke="#b8d7a6" stroke-width="2"/>
  <text x="681" y="99" text-anchor="middle" fill="#5a912f" font-size="28" font-weight="600">guard</text>
  <rect x="760" y="57" width="158" height="66" fill="#eff5ea" stroke="#b8d7a6" stroke-width="2"/>
  <text x="839" y="99" text-anchor="middle" fill="#5a912f" font-size="28" font-weight="600">emotion</text>
  <rect x="936" y="57" width="201" height="66" fill="#eff5ea" stroke="#b8d7a6" stroke-width="2"/>
  <text x="1036" y="99" text-anchor="middle" fill="#5a912f" font-size="28" font-weight="600">face-enroll</text>
  <rect x="1155" y="57" width="253" height="66" fill="#eff5ea" stroke="#b8d7a6" stroke-width="2"/>
  <text x="1282" y="99" text-anchor="middle" fill="#5a912f" font-size="28" font-weight="600">servo-tracking</text>
  <rect x="1426" y="57" width="132" height="66" fill="#eff5ea" stroke="#b8d7a6" stroke-width="2"/>
  <text x="1492" y="99" text-anchor="middle" fill="#5a912f" font-size="28" font-weight="600">music</text>
  <rect x="1576" y="57" width="185" height="66" fill="#eff5ea" stroke="#b8d7a6" stroke-width="2"/>
  <text x="1668" y="99" text-anchor="middle" fill="#5a912f" font-size="28" font-weight="600">+ 20 more</text>
  <rect x="1779" y="57" width="176" height="66" fill="#eff5ea" stroke="#b8d7a6" stroke-width="2" stroke-dasharray="7 7"/>
  <text x="1867" y="99" text-anchor="middle" fill="#5a912f" font-size="28" font-weight="600">your skill</text>
  <text x="96" y="204" fill="#2b2b29" font-size="28" font-weight="600">Agentic runtime</text>
  <text x="96" y="236" font-size="26" font-family="SF Mono, Menlo, Consolas, monospace"><tspan fill="#2b2b29">runtimes/</tspan><tspan fill="#5d579d"> · SOUL.md</tspan></text>
  <rect x="620" y="169" width="184" height="66" fill="#f3f2f9" stroke="#a9a3c9" stroke-width="2"/>
  <text x="712" y="211" text-anchor="middle" fill="#5d579d" font-size="28" font-weight="600">OpenClaw</text>
  <rect x="822" y="169" width="149" height="66" fill="#f3f2f9" stroke="#a9a3c9" stroke-width="2"/>
  <text x="896" y="211" text-anchor="middle" fill="#5d579d" font-size="28" font-weight="600">Hermes</text>
  <rect x="989" y="169" width="176" height="66" fill="#f3f2f9" stroke="#a9a3c9" stroke-width="2"/>
  <text x="1077" y="211" text-anchor="middle" fill="#5d579d" font-size="28" font-weight="600">PicoClaw</text>
  <rect x="1183" y="169" width="183" height="66" fill="#f3f2f9" stroke="#a9a3c9" stroke-width="2"/>
  <text x="1274" y="211" text-anchor="middle" fill="#5d579d" font-size="28" font-weight="600">OpenCode</text>
  <rect x="1384" y="169" width="131" height="66" fill="#f3f2f9" stroke="#a9a3c9" stroke-width="2"/>
  <text x="1450" y="211" text-anchor="middle" fill="#5d579d" font-size="28" font-weight="600">Codex</text>
  <rect x="1533" y="169" width="218" height="66" fill="#f3f2f9" stroke="#a9a3c9" stroke-width="2"/>
  <text x="1642" y="211" text-anchor="middle" fill="#5d579d" font-size="28" font-weight="600">Claude Code</text>
  <rect x="1769" y="169" width="184" height="66" fill="#f3f2f9" stroke="#a9a3c9" stroke-width="2" stroke-dasharray="7 7"/>
  <text x="1861" y="211" text-anchor="middle" fill="#5d579d" font-size="28" font-weight="600">your brain</text>
  <text x="96" y="358" fill="#2b2b29" font-size="28" font-weight="600">System managers</text>
  <text x="96" y="390" font-size="26" font-family="SF Mono, Menlo, Consolas, monospace"><tspan fill="#2b2b29">system/</tspan></text>
  <rect x="620" y="281" width="131" height="66" fill="#f3f2f9" stroke="#a9a3c9" stroke-width="2"/>
  <text x="686" y="323" text-anchor="middle" fill="#5d579d" font-size="28" font-weight="600">server</text>
  <rect x="769" y="281" width="123" height="66" fill="#f3f2f9" stroke="#a9a3c9" stroke-width="2"/>
  <text x="830" y="323" text-anchor="middle" fill="#5d579d" font-size="28" font-weight="600">intent</text>
  <rect x="910" y="281" width="158" height="66" fill="#f3f2f9" stroke="#a9a3c9" stroke-width="2"/>
  <text x="989" y="323" text-anchor="middle" fill="#5d579d" font-size="28" font-weight="600">network</text>
  <rect x="1086" y="281" width="150" height="66" fill="#f3f2f9" stroke="#a9a3c9" stroke-width="2"/>
  <text x="1161" y="323" text-anchor="middle" fill="#5d579d" font-size="28" font-weight="600">monitor</text>
  <rect x="1254" y="281" width="219" height="66" fill="#f3f2f9" stroke="#a9a3c9" stroke-width="2"/>
  <text x="1364" y="323" text-anchor="middle" fill="#5d579d" font-size="28" font-weight="600">healthwatch</text>
  <rect x="1491" y="281" width="158" height="66" fill="#f3f2f9" stroke="#a9a3c9" stroke-width="2"/>
  <text x="1570" y="323" text-anchor="middle" fill="#5d579d" font-size="28" font-weight="600">ambient</text>
  <rect x="620" y="365" width="140" height="66" fill="#f3f2f9" stroke="#a9a3c9" stroke-width="2"/>
  <text x="690" y="407" text-anchor="middle" fill="#5d579d" font-size="28" font-weight="600">device</text>
  <rect x="778" y="365" width="123" height="66" fill="#f3f2f9" stroke="#a9a3c9" stroke-width="2"/>
  <text x="840" y="407" text-anchor="middle" fill="#5d579d" font-size="28" font-weight="600">skills</text>
  <rect x="919" y="365" width="131" height="66" fill="#f3f2f9" stroke="#a9a3c9" stroke-width="2"/>
  <text x="984" y="407" text-anchor="middle" fill="#5d579d" font-size="28" font-weight="600">plugin</text>
  <rect x="1068" y="365" width="175" height="66" fill="#f3f2f9" stroke="#a9a3c9" stroke-width="2"/>
  <text x="1156" y="407" text-anchor="middle" fill="#5d579d" font-size="28" font-weight="600">statusled</text>
  <rect x="1261" y="365" width="131" height="66" fill="#f3f2f9" stroke="#a9a3c9" stroke-width="2"/>
  <text x="1326" y="407" text-anchor="middle" fill="#5d579d" font-size="28" font-weight="600">vision</text>
  <rect x="1410" y="365" width="122" height="66" fill="#f3f2f9" stroke="#a9a3c9" stroke-width="2"/>
  <text x="1471" y="407" text-anchor="middle" fill="#5d579d" font-size="28" font-weight="600">agent</text>
  <rect x="1550" y="365" width="131" height="66" fill="#f3f2f9" stroke="#a9a3c9" stroke-width="2"/>
  <text x="1616" y="407" text-anchor="middle" fill="#5d579d" font-size="28" font-weight="600">buddy</text>
  <rect x="1699" y="365" width="175" height="66" fill="#f3f2f9" stroke="#a9a3c9" stroke-width="2"/>
  <text x="1786" y="407" text-anchor="middle" fill="#5d579d" font-size="28" font-weight="600">bootstrap</text>
  <text x="96" y="512" fill="#2b2b29" font-size="28" font-weight="600">Realtime voice</text>
  <text x="96" y="544" font-size="26" font-family="SF Mono, Menlo, Consolas, monospace"><tspan fill="#2b2b29">hal/realtime/</tspan></text>
  <text x="96" y="576" fill="#a1a099" font-size="24">a voice turn lands here first — answer, or hand it up</text>
  <rect x="620" y="477" width="211" height="66" fill="#f3f2f9" stroke="#a9a3c9" stroke-width="2"/>
  <text x="726" y="519" text-anchor="middle" fill="#5d579d" font-size="28" font-weight="600">Gemini Live</text>
  <rect x="849" y="477" width="280" height="66" fill="#f3f2f9" stroke="#a9a3c9" stroke-width="2"/>
  <text x="989" y="519" text-anchor="middle" fill="#5d579d" font-size="28" font-weight="600">OpenAI Realtime</text>
  <rect x="1147" y="477" width="123" height="66" fill="#f3f2f9" stroke="#a9a3c9" stroke-width="2"/>
  <text x="1208" y="519" text-anchor="middle" fill="#5d579d" font-size="28" font-weight="600">Qwen</text>
  <text x="96" y="666" fill="#2b2b29" font-size="28" font-weight="600">Capabilities</text>
  <text x="96" y="698" font-size="26" font-family="SF Mono, Menlo, Consolas, monospace"><tspan fill="#2b2b29">devices/contract/</tspan><tspan fill="#5d579d"> · DEVICE.md</tspan></text>
  <text x="96" y="730" fill="#a1a099" font-size="24">served by hal/routes/ on :5001</text>
  <rect x="620" y="589" width="122" height="66" fill="#eff5ea" stroke="#b8d7a6" stroke-width="2"/>
  <text x="681" y="631" text-anchor="middle" fill="#5a912f" font-size="28" font-weight="600">audio</text>
  <rect x="760" y="589" width="131" height="66" fill="#eff5ea" stroke="#b8d7a6" stroke-width="2"/>
  <text x="826" y="631" text-anchor="middle" fill="#5a912f" font-size="28" font-weight="600">vision</text>
  <rect x="909" y="589" width="157" height="66" fill="#eff5ea" stroke="#b8d7a6" stroke-width="2"/>
  <text x="988" y="631" text-anchor="middle" fill="#5a912f" font-size="28" font-weight="600">sensing</text>
  <rect x="1084" y="589" width="174" height="66" fill="#eff5ea" stroke="#b8d7a6" stroke-width="2"/>
  <text x="1171" y="631" text-anchor="middle" fill="#5a912f" font-size="28" font-weight="600">presence</text>
  <rect x="1276" y="589" width="141" height="66" fill="#eff5ea" stroke="#b8d7a6" stroke-width="2"/>
  <text x="1346" y="631" text-anchor="middle" fill="#5a912f" font-size="28" font-weight="600">motion</text>
  <rect x="1435" y="589" width="106" height="66" fill="#eff5ea" stroke="#b8d7a6" stroke-width="2"/>
  <text x="1488" y="631" text-anchor="middle" fill="#5a912f" font-size="28" font-weight="600">light</text>
  <rect x="1559" y="589" width="149" height="66" fill="#eff5ea" stroke="#b8d7a6" stroke-width="2"/>
  <text x="1634" y="631" text-anchor="middle" fill="#5a912f" font-size="28" font-weight="600">display</text>
  <rect x="620" y="673" width="201" height="66" fill="#eff5ea" stroke="#b8d7a6" stroke-width="2"/>
  <text x="720" y="715" text-anchor="middle" fill="#5a912f" font-size="28" font-weight="600">expression</text>
  <rect x="839" y="673" width="141" height="66" fill="#eff5ea" stroke="#b8d7a6" stroke-width="2"/>
  <text x="910" y="715" text-anchor="middle" fill="#5a912f" font-size="28" font-weight="600">lifelike</text>
  <rect x="998" y="673" width="132" height="66" fill="#eff5ea" stroke="#b8d7a6" stroke-width="2"/>
  <text x="1064" y="715" text-anchor="middle" fill="#5a912f" font-size="28" font-weight="600">media</text>
  <rect x="1148" y="673" width="219" height="66" fill="#eff5ea" stroke="#b8d7a6" stroke-width="2"/>
  <text x="1258" y="715" text-anchor="middle" fill="#5a912f" font-size="28" font-weight="600">connectivity</text>
  <rect x="1385" y="673" width="201" height="66" fill="#eff5ea" stroke="#b8d7a6" stroke-width="2"/>
  <text x="1486" y="715" text-anchor="middle" fill="#5a912f" font-size="28" font-weight="600">companion</text>
  <rect x="1604" y="673" width="149" height="66" fill="#eff5ea" stroke="#b8d7a6" stroke-width="2"/>
  <text x="1678" y="715" text-anchor="middle" fill="#5a912f" font-size="28" font-weight="600">system</text>
  <text x="96" y="820" fill="#2b2b29" font-size="28" font-weight="600">Safety gate</text>
  <text x="96" y="852" font-size="26" font-family="SF Mono, Menlo, Consolas, monospace"><tspan fill="#2b2b29">hal/safety/</tspan><tspan fill="#5d579d"> · SAFETY.md</tspan></text>
  <text x="96" y="932" fill="#2b2b29" font-size="28" font-weight="600">Drivers</text>
  <text x="96" y="964" font-size="26" font-family="SF Mono, Menlo, Consolas, monospace"><tspan fill="#2b2b29">hal/drivers/</tspan></text>
  <rect x="620" y="897" width="141" height="66" fill="#eff5ea" stroke="#b8d7a6" stroke-width="2"/>
  <text x="690" y="939" text-anchor="middle" fill="#5a912f" font-size="28" font-weight="600">motors</text>
  <rect x="779" y="897" width="88" height="66" fill="#eff5ea" stroke="#b8d7a6" stroke-width="2"/>
  <text x="823" y="939" text-anchor="middle" fill="#5a912f" font-size="28" font-weight="600">rgb</text>
  <rect x="885" y="897" width="149" height="66" fill="#eff5ea" stroke="#b8d7a6" stroke-width="2"/>
  <text x="960" y="939" text-anchor="middle" fill="#5a912f" font-size="28" font-weight="600">camera</text>
  <rect x="1052" y="897" width="122" height="66" fill="#eff5ea" stroke="#b8d7a6" stroke-width="2"/>
  <text x="1113" y="939" text-anchor="middle" fill="#5a912f" font-size="28" font-weight="600">voice</text>
  <rect x="1192" y="897" width="149" height="66" fill="#eff5ea" stroke="#b8d7a6" stroke-width="2"/>
  <text x="1266" y="939" text-anchor="middle" fill="#5a912f" font-size="28" font-weight="600">display</text>
  <rect x="1359" y="897" width="157" height="66" fill="#eff5ea" stroke="#b8d7a6" stroke-width="2"/>
  <text x="1438" y="939" text-anchor="middle" fill="#5a912f" font-size="28" font-weight="600">sensing</text>
  <rect x="1534" y="897" width="158" height="66" fill="#eff5ea" stroke="#b8d7a6" stroke-width="2"/>
  <text x="1613" y="939" text-anchor="middle" fill="#5a912f" font-size="28" font-weight="600">tracking</text>
  <rect x="1710" y="897" width="237" height="66" fill="#eff5ea" stroke="#b8d7a6" stroke-width="2"/>
  <text x="1828" y="939" text-anchor="middle" fill="#5a912f" font-size="28" font-weight="600">media_owner</text>
  <text x="96" y="1016" fill="#2b2b29" font-size="28" font-weight="600">Boards</text>
  <text x="96" y="1048" font-size="26" font-family="SF Mono, Menlo, Consolas, monospace"><tspan fill="#2b2b29">hal/board/boards.json</tspan></text>
  <rect x="620" y="981" width="245" height="66" fill="#eff5ea" stroke="#b8d7a6" stroke-width="2"/>
  <text x="742" y="1023" text-anchor="middle" fill="#5a912f" font-size="28" font-weight="600">Raspberry Pi 4</text>
  <rect x="883" y="981" width="245" height="66" fill="#eff5ea" stroke="#b8d7a6" stroke-width="2"/>
  <text x="1006" y="1023" text-anchor="middle" fill="#5a912f" font-size="28" font-weight="600">Raspberry Pi 5</text>
  <rect x="1146" y="981" width="289" height="66" fill="#eff5ea" stroke="#b8d7a6" stroke-width="2"/>
  <text x="1290" y="1023" text-anchor="middle" fill="#5a912f" font-size="28" font-weight="600">Raspberry Pi CM4</text>
  <rect x="1453" y="981" width="245" height="66" fill="#eff5ea" stroke="#b8d7a6" stroke-width="2"/>
  <text x="1576" y="1023" text-anchor="middle" fill="#5a912f" font-size="28" font-weight="600">OrangePi 4 Pro</text>
  <rect x="1716" y="981" width="192" height="66" fill="#eff5ea" stroke="#b8d7a6" stroke-width="2" stroke-dasharray="7 7"/>
  <text x="1812" y="1023" text-anchor="middle" fill="#5a912f" font-size="28" font-weight="600">your board</text>
  <text x="96" y="1128" fill="#2b2b29" font-size="28" font-weight="600">Linux</text>
  <text x="96" y="1160" fill="#a1a099" font-size="24">vendor kernel, not ours</text>
  <text x="96" y="1240" fill="#2b2b29" font-size="28" font-weight="600">Bodies</text>
  <text x="96" y="1272" font-size="26" font-family="SF Mono, Menlo, Consolas, monospace"><tspan fill="#2b2b29">devices/</tspan></text>
  <rect x="620" y="1205" width="115" height="66" rx="33" fill="#fbf0ed" stroke="#f0c5b6" stroke-width="2"/>
  <text x="678" y="1247" text-anchor="middle" fill="#ad5130" font-size="28" font-weight="600">Lamp</text>
  <rect x="753" y="1205" width="123" height="66" rx="33" fill="#fbf0ed" stroke="#f0c5b6" stroke-width="2"/>
  <text x="814" y="1247" text-anchor="middle" fill="#ad5130" font-size="28" font-weight="600">Intern</text>
  <rect x="894" y="1205" width="211" height="66" rx="33" fill="#fbf0ed" stroke="#f0c5b6" stroke-width="2"/>
  <text x="1000" y="1247" text-anchor="middle" fill="#ad5130" font-size="28" font-weight="600">Reachy Mini</text>
  <rect x="1123" y="1205" width="132" height="66" rx="33" fill="#fbf0ed" stroke="#f0c5b6" stroke-width="2" stroke-dasharray="7 7"/>
  <text x="1189" y="1247" text-anchor="middle" fill="#ad5130" font-size="28" font-weight="600">Go2-W</text>
  <rect x="1273" y="1205" width="176" height="66" rx="33" fill="#fbf0ed" stroke="#f0c5b6" stroke-width="2" stroke-dasharray="7 7"/>
  <text x="1361" y="1247" text-anchor="middle" fill="#ad5130" font-size="28" font-weight="600">your robot</text>
  <rect x="620" y="785" width="1335" height="66" fill="#f3f2f9" stroke="#a9a3c9" stroke-width="2"/>
  <text x="1288" y="827" text-anchor="middle" fill="#5d579d" font-size="28" font-weight="600">brightness · quiet hours · explicit-move speed · thermal</text>
  <rect x="620" y="1093" width="1335" height="66" fill="#eff5ea" stroke="#b8d7a6" stroke-width="2"/>
  <text x="1288" y="1135" text-anchor="middle" fill="#5a912f" font-size="28" font-weight="600">Raspberry Pi OS · OrangePi Debian · the robot's own image</text>
  <path d="M54 53 L54 1271" fill="none" stroke="#a1a099" stroke-width="2" marker-end="url(#ha)"/>
  <text x="20" y="662" fill="#2b2b29" font-size="28" text-anchor="middle" transform="rotate(90 20 662)">act — a skill writes [HW:/servo/aim]</text>
  <path d="M1989 1271 L1989 53" fill="none" stroke="#a1a099" stroke-width="2" marker-end="url(#ha)"/>
  <text x="2023" y="662" fill="#2b2b29" font-size="28" text-anchor="middle" transform="rotate(-90 2023 662)">sense — events → intent → agent</text>
</svg>
